<?xml version="1.0" encoding="UTF-8"?>
<svg id="Layer_1" data-name="Layer 1" xmlns="http://www.w3.org/2000/svg" viewBox="0 0 50 50">
  <defs>
    <style>
      .cls-1 {
        fill: #191b35;
      }

      .cls-1, .cls-2, .cls-3 {
        stroke-width: 0px;
      }

      .cls-2 {
        fill: #e2c227;
      }

      .cls-3 {
        fill: #fff;
      }
    </style>
  </defs>
  <g>
    <circle class="cls-1" cx="25" cy="25" r="24.08"/>
    <path class="cls-2" d="M25,1.3c13.09,0,23.7,10.61,23.7,23.7s-10.61,23.7-23.7,23.7S1.3,38.09,1.3,25,11.91,1.3,25,1.3M25,.55C11.52.55.55,11.52.55,25s10.97,24.45,24.45,24.45,24.45-10.97,24.45-24.45S38.48.55,25,.55h0Z"/>
  </g>
  <g>
    <path class="cls-3" d="M19.17,23.42c-.03-.28-.02-.59-.01-.91,0-.15,0-.31,0-.48,0,0,0-.02,0-.02,0-.43-.35-.77-.77-.78h0s0,0-.01,0c-.11,0-.21.03-.31.07l-2.27.97-.07.03c-.1-.16-.21-.32-.31-.49-.19-.29-.37-.57-.55-.85.31-.87.26-1.89-.13-2.7.08,0,.16,0,.24,0,.94,0,1.81-.36,2.47-1.01.65-.65,1.02-1.53,1.02-2.46,0-.94-.36-1.83-1.02-2.5-.66-.66-1.53-1.02-2.47-1.02h0c-1.91,0-3.47,1.56-3.5,3.48,0,.78.24,1.53.72,2.15-1.37.18-2.38,1-2.94,2.41-.91,2.32-1.18,4.79-.8,7.33.21,1.37.95,2.06,1.62,2.4.2.83.37,1.52.51,2.17.03.15.07.29.11.43.09.34.17.66.16.94-.02.8-.1,1.63-.17,2.43-.03.37-.07.75-.09,1.12-.02.22-.03.44-.05.66-.06.79-.13,1.61-.17,2.42-.05.93.52,1.8,1.42,2.15.13.05.26.09.37.12.04.01.08.02.13.04.07.02.15.04.23.04h.25c.13,0,.26-.03.37-.1,1.09-.3,1.69-1.02,1.78-2.15.02-.28.05-.56.07-.84v-.07c.04-.46.08-.91.12-1.37.1-1.27.21-2.59.3-3.89v-.1c.04-.4.07-.86-.02-1.32-.19-1-.43-1.97-.67-2.88-.23-.9-.44-1.84-.49-2.81.28.15.55.19.77.19.26,0,.54-.06.82-.18.25-.11.51-.22.75-.33.51-.23.99-.44,1.49-.62.81-.3,1.18-.87,1.08-1.7Z"/>
    <g>
      <path class="cls-3" d="M35.16,13.95c0-.22-.12-.34-.36-.34h-.32v.67h.32c.24,0,.36-.11.36-.34Z"/>
      <path class="cls-3" d="M29.24,15.01c-.03.05-.04.11-.04.16,0,.09.04.16.12.23.08.06.18.09.32.09.12,0,.24-.02.35-.06l-.61-.57c-.06.04-.1.09-.13.14Z"/>
      <polygon class="cls-3" points="26.53 19.8 27.19 19.8 26.86 18.78 26.53 19.8"/>
      <path class="cls-3" d="M39.12,10.88c-1.72-1.63-4.19-2.45-7.41-2.45h-3.14c-4.62,0-8.37,3.75-8.37,8.37h0c0,.22.03.44.08.65l1.07,4.1c.2.77-.36,1.52-1.15,1.54h0v1.9c0,.09.07.16.16.16h.57c.09,0,.16.07.16.16v.76c0,.09-.07.16-.16.16h-.57c-.09,0-.16.07-.16.16v13.88c0,.35.29.64.64.64h6.96c.35,0,.64-.29.64-.64v-13.26c0-.35.29-.64.64-.64h2.63c2.13,0,3.94-.4,5.44-1.19,1.5-.79,2.63-1.86,3.4-3.21.77-1.35,1.15-2.85,1.15-4.51,0-2.75-.86-4.94-2.58-6.57ZM33.33,12.69h1.6c.45,0,.79.11,1.03.34.24.23.36.53.36.91,0,.23-.05.44-.16.63-.11.19-.26.34-.47.45-.21.11-.46.16-.76.16h-.45v1.16h-1.14v-3.65ZM25.64,12.69h1.14v3.65h-1.14v-3.65ZM27.65,21.21l-.18-.55h-1.22l-.18.55h-1.2l1.34-3.65h1.32l1.33,3.65h-1.21ZM31.98,18.47h-.97v2.74h-1.14v-2.74h-.96v-.91h3.07v.91ZM30.94,16.34l-.25-.24c-.32.19-.7.29-1.14.29-.3,0-.55-.05-.77-.14-.22-.09-.39-.22-.5-.39-.12-.17-.18-.37-.18-.59s.05-.4.16-.57c.11-.17.27-.32.49-.44-.16-.2-.24-.4-.24-.62,0-.19.05-.36.15-.51s.24-.28.43-.37c.19-.09.41-.14.68-.14s.49.05.68.14c.19.09.32.22.42.37s.14.32.14.5h-1.04c0-.07-.02-.11-.06-.15-.04-.03-.08-.05-.13-.05-.06,0-.1.02-.14.05-.04.03-.06.08-.06.14,0,.11.08.24.23.38l.83.8c.05-.09.09-.2.13-.31l.02-.05h1.11l-.05.13c-.13.34-.29.65-.48.92l.86.84h-1.26ZM36.67,21.21h-1.14v-1.82l-.56,1.82h-.98l-.56-1.82v1.82h-1.14v-3.65h1.4l.8,2.19.78-2.19h1.4v3.65Z"/>
    </g>
  </g>
</svg>