<?xml version="1.0" encoding="UTF-8"?>
<svg id="Layer_1" data-name="Layer 1" xmlns="http://www.w3.org/2000/svg" viewBox="0 0 390.65 132.99">
  <defs>
    <style>
      .cls-1 {
        fill: #fff;
        stroke-width: 0px;
      }
    </style>
  </defs>
  <g>
    <path class="cls-1" d="M161.7,14.53v111.89h-31.11V14.53h31.11Z"/>
    <path class="cls-1" d="M258.2,126.42l-9.05-8.57c-10.05,6.88-22.06,10.32-36.03,10.32-8.78,0-16.43-1.43-22.93-4.29-6.51-2.86-11.53-6.88-15.08-12.06-3.55-5.18-5.32-11.16-5.32-17.93s1.77-12.94,5.32-18.49c3.54-5.55,8.86-10.08,15.95-13.57-2.65-3.38-4.55-6.61-5.71-9.68-1.17-3.07-1.75-6.35-1.75-9.84,0-5.5,1.43-10.53,4.29-15.08,2.86-4.55,7.06-8.17,12.62-10.87,5.55-2.7,12.14-4.05,19.76-4.05s14.28,1.4,19.68,4.21c5.4,2.8,9.44,6.51,12.14,11.11s3.99,9.6,3.89,15h-28.73c0-2.43-.69-4.29-2.06-5.55-1.38-1.27-3.07-1.9-5.08-1.9-2.12,0-3.89.61-5.32,1.83-1.43,1.22-2.14,2.88-2.14,5,0,3.71,2.64,8.2,7.94,13.49l26.19,25.55c.95-1.9,1.96-4.18,3.02-6.82l3.17-5.71h30.79l-4.6,8.89c-3.81,9.1-7.99,16.77-12.54,23.01l26.66,26.03h-35.08ZM230.11,99.59l-22.06-21.11c-2.75,1.69-4.82,3.65-6.19,5.87-1.38,2.22-2.06,4.5-2.06,6.82,0,3.39,1.37,6.24,4.13,8.57,2.75,2.33,6.51,3.49,11.27,3.49,5.61,0,10.58-1.21,14.92-3.65Z"/>
    <path class="cls-1" d="M379.37,70.31c-3.12,5.55-7.83,10-14.12,13.33-6.3,3.33-13.99,5-23.09,5h-15.39v37.77h-31.11V14.53h46.5c8.99,0,16.64,1.59,22.93,4.76,6.29,3.17,11.03,7.57,14.21,13.17,3.17,5.61,4.76,12.06,4.76,19.36,0,6.77-1.56,12.93-4.68,18.49ZM352.31,51.82c0-8.15-4.39-12.22-13.17-12.22h-12.38v24.28h12.38c8.78,0,13.17-4.02,13.17-12.06Z"/>
  </g>
  <g id="ju5cyH.tif">
    <g>
      <path class="cls-1" d="M95.15,126.42h-46.1v-3.55h-2.59v-51.67h2.51v-2.68h-3.97c0-.52,0-.95,0-1.38,0-5.78.19-11.56-.06-17.33-.27-6.08,0-12.1,1.04-18.07,1.24-7.08,3.5-13.78,7.58-19.77,2.07-3.04,4.52-5.72,7.52-7.96.8,1.05,1.52,2.06,2.32,3,.31.36.78.7,1.24.81,9.68,2.35,19.36,4.68,29.05,6.95,1.16.27,1.54.68,1.54,1.94-.04,36.13-.04,72.26-.04,108.39,0,.44-.02.88-.03,1.31Z"/>
      <path class="cls-1" d="M21.34,126.42c-.56-.18-1.14-.32-1.68-.53-2.17-.86-3.67-2.95-3.55-5.3.19-3.89.53-7.78.83-11.67.35-4.56.88-9.12,1-13.69.05-1.97-.66-3.97-1.1-5.94-.66-2.98-1.38-5.96-2.11-8.93-.09-.37-.35-.86-.66-.99-3.29-1.32-4.82-4.02-5.31-7.26-1.37-9.02-.49-17.86,2.86-26.38,1.64-4.17,4.57-6.95,9.26-7.38,2.73-.25,4.81.91,6.07,3.33,1.26,2.41,1.46,5.71.43,8.44-1.02-1.56-1.97-3.06-2.95-4.54-1.15-1.74-2.81-2.45-4.83-2.12-1.78.3-3.03,1.37-3.6,3.1-.51,1.53-.25,2.97.63,4.32,2.69,4.14,5.36,8.28,8.02,12.44.26.41.51.96.45,1.41-.7,5.8.38,11.4,1.81,16.97.92,3.58,1.8,7.17,2.5,10.79.29,1.49.13,3.08.02,4.62-.49,6.67-1.04,13.33-1.57,19.99-.09,1.15-.18,2.3-.28,3.45-.27,3.2-1.77,4.91-4.97,5.67-.11.03-.2.12-.3.18h-.96Z"/>
      <path class="cls-1" d="M40.96,27.47c-.03,5.74-4.6,10.29-10.33,10.29-5.76,0-10.44-4.69-10.37-10.4.07-5.71,4.69-10.31,10.37-10.32,5.74,0,10.36,4.66,10.33,10.44Z"/>
      <path class="cls-1" d="M32.37,59.76c3.74-1.61,7.38-3.17,11.24-4.83,0,2.01-.16,3.87.04,5.69.2,1.87-.49,2.73-2.21,3.36-2.94,1.08-5.78,2.43-8.67,3.65-2.19.93-3.84.44-5.13-1.56-3.4-5.24-6.78-10.49-10.15-15.74-1.25-1.95-.83-4.22.94-5.35,1.8-1.16,3.98-.63,5.26,1.34,2.88,4.43,5.74,8.88,8.68,13.44Z"/>
    </g>
  </g>
</svg>