<?xml version="1.0" encoding="UTF-8"?>
<svg id="Layer_1" data-name="Layer 1" xmlns="http://www.w3.org/2000/svg" viewBox="0 0 261.86 259.8">
  <defs>
    <style>
      .cls-1 {
        fill: #fff;
        stroke-width: 0px;
      }
    </style>
  </defs>
  <path class="cls-1" d="M85.84,117.71c-.24-2.16-.18-4.53-.11-7.05.03-1.19.06-2.41.06-3.69,0-.06,0-.12,0-.18,0-3.31-2.68-5.99-5.99-6h-.02s-.08,0-.11,0c-.85.02-1.65.21-2.37.54l-17.54,7.54-.53.23c-.81-1.26-1.62-2.52-2.43-3.77-1.44-2.24-2.86-4.43-4.26-6.61,2.41-6.77,2.04-14.67-.97-20.92.6.04,1.21.07,1.82.07,7.25,0,14.03-2.78,19.1-7.83,5.07-5.05,7.88-11.82,7.92-19.06.04-7.31-2.76-14.17-7.88-19.32-5.09-5.12-11.87-7.93-19.1-7.93h-.04c-14.75.02-26.9,12.09-27.07,26.91-.07,6.07,1.88,11.86,5.55,16.62-10.59,1.36-18.44,7.77-22.72,18.64C2.07,103.84,0,122.93,2.98,142.63c1.61,10.63,7.36,15.92,12.55,18.55,1.58,6.43,2.84,11.79,3.95,16.77.26,1.15.55,2.27.83,3.36.68,2.64,1.33,5.14,1.27,7.25-.17,6.23-.74,12.64-1.29,18.84-.25,2.85-.51,5.79-.73,8.71-.13,1.71-.26,3.42-.4,5.14-.48,6.13-.98,12.47-1.29,18.75-.36,7.21,4.06,13.91,11.01,16.66,1.03.41,2.01.69,2.88.94.32.09.65.19.97.29.58.18,1.18.27,1.79.27h1.94c1.01,0,2.01-.26,2.9-.75,8.42-2.29,13.07-7.88,13.81-16.63.18-2.17.36-4.33.53-6.5l.04-.55c.28-3.53.56-7.05.85-10.58.79-9.87,1.61-20.07,2.35-30.12l.06-.75c.24-3.12.5-6.65-.18-10.22-1.49-7.72-3.36-15.28-5.17-22.31-1.79-6.96-3.4-14.27-3.83-21.72,2.14,1.16,4.25,1.5,5.96,1.5,2.02,0,4.15-.47,6.33-1.39,1.96-.83,3.91-1.69,5.8-2.52,3.96-1.74,7.7-3.39,11.55-4.8,6.27-2.29,9.1-6.71,8.39-13.12Z"/>
  <g>
    <path class="cls-1" d="M209.56,44.35c0-1.73-.92-2.59-2.75-2.59h-2.51v5.19h2.51c1.84,0,2.75-.86,2.75-2.59Z"/>
    <path class="cls-1" d="M163.72,52.59c-.23.41-.34.83-.34,1.26,0,.69.3,1.28.9,1.76.6.48,1.43.72,2.49.72.96,0,1.85-.15,2.67-.44l-4.71-4.39c-.45.32-.79.69-1.02,1.1Z"/>
    <polygon class="cls-1" points="142.75 89.62 147.86 89.62 145.3 81.76 142.75 89.62"/>
    <path class="cls-1" d="M240.24,20.61C226.92,7.96,207.81,1.64,182.91,1.64h-24.29c-35.78,0-64.79,29.01-64.79,64.79h0c0,1.69.22,3.37.64,5l8.28,31.71c1.55,5.92-2.81,11.75-8.93,11.94h0v14.68c0,.68.55,1.23,1.23,1.23h4.41c.68,0,1.23.55,1.23,1.23v5.92c0,.68-.55,1.23-1.23,1.23h-4.41c-.68,0-1.23.55-1.23,1.23v107.4c0,2.74,2.22,4.97,4.97,4.97h53.86c2.74,0,4.97-2.22,4.97-4.97v-102.6c0-2.74,2.22-4.97,4.97-4.97h20.32c16.47,0,30.5-3.06,42.09-9.19,11.59-6.13,20.35-14.41,26.29-24.85,5.93-10.44,8.91-22.08,8.91-34.91,0-21.26-6.66-38.22-19.97-50.86ZM195.43,34.65h12.37c3.46,0,6.11.88,7.96,2.63,1.85,1.76,2.77,4.11,2.77,7.06,0,1.78-.41,3.4-1.24,4.85-.83,1.45-2.04,2.6-3.65,3.45-1.61.85-3.56,1.28-5.85,1.28h-3.51v8.98h-8.86v-28.25ZM135.85,34.65h8.86v28.25h-8.86v-28.25ZM151.41,100.55l-1.4-4.27h-9.42l-1.4,4.27h-9.3l10.34-28.25h10.22l10.3,28.25h-9.34ZM184.93,79.32h-7.5v21.23h-8.86v-21.23h-7.42v-7.02h23.79v7.02ZM176.91,62.9l-1.96-1.84c-2.5,1.49-5.44,2.23-8.82,2.23-2.29,0-4.28-.36-5.97-1.08-1.69-.72-2.99-1.74-3.89-3.05-.9-1.32-1.36-2.83-1.36-4.53s.42-3.11,1.26-4.45c.84-1.34,2.1-2.48,3.77-3.41-1.22-1.52-1.84-3.11-1.84-4.79,0-1.44.38-2.75,1.14-3.95s1.87-2.15,3.33-2.85c1.46-.7,3.21-1.06,5.23-1.06s3.79.37,5.23,1.1c1.44.73,2.51,1.7,3.23,2.89s1.08,2.49,1.08,3.87h-8.06c0-.5-.15-.88-.44-1.14-.29-.25-.64-.38-1.04-.38-.43,0-.79.13-1.1.38-.31.25-.46.61-.46,1.06,0,.85.58,1.84,1.76,2.95l6.43,6.23c.37-.72.7-1.53,1-2.43l.12-.36h8.58l-.4,1.04c-1.01,2.66-2.26,5.03-3.75,7.1l6.66,6.47h-9.74ZM221.29,100.55h-8.82v-14.09l-4.35,14.09h-7.58l-4.35-14.09v14.09h-8.86v-28.25h10.85l6.23,16.96,6.07-16.96h10.82v28.25Z"/>
  </g>
</svg>