<?xml version="1.0" encoding="UTF-8"?>
<svg id="Layer_1" data-name="Layer 1" xmlns="http://www.w3.org/2000/svg" viewBox="0 0 298.61 282.04">
  <defs>
    <style>
      .cls-1 {
        fill: #16162d;
        stroke-width: 0px;
      }
    </style>
  </defs>
  <path class="cls-1" d="m149.54,0c39.47,0,78.93-.02,118.4.01,15.75.01,27.37,9.52,30.26,24.71.38,1.98.39,4.05.39,6.08.02,73.47.03,146.94,0,220.41,0,15.66-9.39,27.38-24.26,30.37-1.77.36-3.62.42-5.43.42-79.68.02-159.36.05-239.04-.01-15.05-.01-26.57-9.76-29.42-24.54-.4-2.08-.42-4.26-.42-6.4C0,177.7,0,104.34.01,30.97.01,15.25,9.29,3.5,24.11.5,26.61,0,29.23.03,31.79.03,71.04,0,110.29,0,149.54,0Zm-.24,32.37c-31.95,0-63.91-.02-95.86,0-13.06,0-21.13,8.02-21.15,21-.03,21.56-.03,43.11,0,64.67.02,12.96,8.13,21.01,21.15,21.01,63.91,0,127.82,0,191.73,0,13.02,0,21.13-8.03,21.15-21.01.04-21.56.04-43.11-.03-64.67,0-2.33-.25-4.74-.86-6.98-2.43-8.81-9.87-14-19.94-14.01-32.06-.03-64.12,0-96.18,0Zm-61.42,130.96c-17.48,0-34.96,0-52.44,0-3.98,0-4.54.55-4.55,4.41-.02,7.83.07,15.66-.04,23.49-.04,3.07,1.31,4.23,4.25,4.23,35.17-.03,70.35,0,105.52-.03,3.51,0,4.2-.82,4.21-4.49.02-7.61.01-15.23,0-22.84,0-4.33-.43-4.76-4.83-4.76-17.37,0-34.75,0-52.12,0Zm98.95,85.37c4.6,0,9.21-.07,13.81.03,2.78.06,3.87-1.26,3.86-3.88-.02-8.14-.02-16.28,0-24.42,0-2.46-1.04-3.83-3.63-3.83-9.21.01-18.42,0-27.63.01-2.35,0-3.47,1.14-3.45,3.59.06,8.25.08,16.49,0,24.74-.03,2.8,1.21,3.84,3.88,3.79,4.39-.07,8.78-.02,13.17-.02Zm.36-85.37c-4.39,0-8.78.09-13.17-.03-2.94-.08-4.3.92-4.25,4.07.13,8.03.11,16.06,0,24.1-.03,2.73,1.06,3.98,3.75,3.98,8.99-.01,17.99-.03,26.98.01,2.87.01,4.03-1.36,4.01-4.15-.05-7.92-.06-15.85,0-23.78.02-2.92-1.05-4.35-4.16-4.24-4.39.15-8.78.04-13.17.04Zm59.17,0c-4.5,0-9,.06-13.49-.02-2.68-.05-3.9,1.02-3.87,3.8.09,8.14.09,16.28,0,24.42-.03,2.77,1.19,3.92,3.83,3.91,9-.01,17.99-.02,26.99,0,2.65,0,3.95-1.19,3.94-3.88-.03-8.14-.02-16.28,0-24.42,0-2.65-1.15-3.91-3.9-3.85-4.5.1-9,.03-13.49.03Zm-.07,85.37c4.5,0,9-.07,13.49.03,2.7.06,3.97-1.1,3.97-3.79-.02-8.14-.02-16.28,0-24.42,0-2.65-1.17-3.95-3.88-3.94-9,.03-17.99.02-26.99,0-2.61,0-3.92,1.02-3.89,3.84.09,8.14.09,16.28,0,24.42-.03,2.73,1.07,3.92,3.8,3.88,4.5-.07,9-.02,13.49-.02Zm-158.1-22.18c-17.89,0-35.78,0-53.66-.01-2.5,0-4.3.87-4.27,3.6.03,2.52,1.79,3.45,4.1,3.55.64.03,1.29,0,1.93,0,34.38,0,68.77,0,103.15,0,1.07,0,2.18.09,3.2-.14,2.63-.61,3.94-3.62,2.16-5.42-.96-.97-2.79-1.51-4.22-1.52-17.46-.1-34.92-.06-52.38-.06Z"/>
  <g>
    <path class="cls-1" d="m70.54,51.27v73.33h-22.99V51.27h22.99Z"/>
    <path class="cls-1" d="m154.12,124.6l-5.08-4.76c-6.49,3.87-14.12,5.8-22.89,5.8-5.94,0-11.1-.93-15.48-2.8-4.39-1.86-7.75-4.5-10.1-7.92-2.35-3.42-3.52-7.34-3.52-11.75s1.09-8.06,3.26-11.55c2.17-3.49,5.44-6.44,9.79-8.86-3.18-3.94-4.76-8.08-4.76-12.43,0-3.73.98-7.15,2.95-10.25s4.85-5.58,8.65-7.41c3.8-1.83,8.32-2.74,13.57-2.74s9.84.95,13.57,2.85c3.73,1.9,6.52,4.4,8.39,7.51s2.8,6.46,2.8,10.05h-20.92c0-1.31-.38-2.29-1.14-2.95-.76-.66-1.66-.98-2.69-.98-1.11,0-2.06.33-2.85.98-.79.66-1.19,1.57-1.19,2.74,0,2.21,1.52,4.76,4.56,7.66l16.67,16.16c.97-1.86,1.83-3.97,2.59-6.32l.31-.93h22.27l-1.04,2.69c-2.62,6.91-5.87,13.05-9.74,18.44l17.3,16.78h-25.27Zm-19.37-18.23l-12.22-11.39c-1.17.83-2.05,1.78-2.64,2.85-.59,1.07-.88,2.16-.88,3.26,0,1.8.78,3.31,2.33,4.56s3.71,1.86,6.47,1.86c2.49,0,4.8-.38,6.94-1.14Z"/>
    <path class="cls-1" d="m258.93,89.02c-2.14,3.76-5.3,6.75-9.48,8.96-4.18,2.21-9.24,3.31-15.17,3.31h-9.11v23.3h-22.99V51.27h32.11c8.97,0,15.86,2.28,20.66,6.84,4.8,4.56,7.2,10.67,7.2,18.33,0,4.63-1.07,8.82-3.21,12.58Zm-20.09-12.58c0-4.49-2.38-6.73-7.15-6.73h-6.52v13.46h6.52c4.76,0,7.15-2.24,7.15-6.73Z"/>
  </g>
</svg>