<?xml version="1.0" encoding="UTF-8"?>
<svg id="Layer_1" data-name="Layer 1" xmlns="http://www.w3.org/2000/svg" viewBox="0 0 298.61 282.04">
  <defs>
    <style>
      .cls-1 {
        fill: #fff;
        stroke-width: 0px;
      }
    </style>
  </defs>
  <path class="cls-1" d="m149.54,0c39.47,0,78.93-.02,118.4.01,15.75.01,27.37,9.52,30.26,24.71.38,1.98.39,4.05.39,6.08.02,73.47.03,146.94,0,220.41,0,15.66-9.39,27.38-24.26,30.37-1.77.36-3.62.42-5.43.42-79.68.02-159.36.05-239.04-.01-15.05-.01-26.57-9.76-29.42-24.54-.4-2.08-.42-4.26-.42-6.4C0,177.7,0,104.34.01,30.97.01,15.25,9.29,3.5,24.11.5,26.61,0,29.23.03,31.79.03,71.04,0,110.29,0,149.54,0Zm-.24,32.37c-31.95,0-63.91-.02-95.86,0-13.06,0-21.13,8.02-21.15,21-.03,21.56-.03,43.11,0,64.67.02,12.96,8.13,21.01,21.15,21.01,63.91,0,127.82,0,191.73,0,13.02,0,21.13-8.03,21.15-21.01.04-21.56.04-43.11-.03-64.67,0-2.33-.25-4.74-.86-6.98-2.43-8.81-9.87-14-19.94-14.01-32.06-.03-64.12,0-96.18,0Zm-61.42,130.96c-17.48,0-34.96,0-52.44,0-3.98,0-4.54.55-4.55,4.41-.02,7.83.07,15.66-.04,23.49-.04,3.07,1.31,4.23,4.25,4.23,35.17-.03,70.35,0,105.52-.03,3.51,0,4.2-.82,4.21-4.49.02-7.61.01-15.23,0-22.84,0-4.33-.43-4.76-4.83-4.76-17.37,0-34.75,0-52.12,0Zm98.95,85.37c4.6,0,9.21-.07,13.81.03,2.78.06,3.87-1.26,3.86-3.88-.02-8.14-.02-16.28,0-24.42,0-2.46-1.04-3.83-3.63-3.83-9.21.01-18.42,0-27.63.01-2.35,0-3.47,1.14-3.45,3.59.06,8.25.08,16.49,0,24.74-.03,2.8,1.21,3.84,3.88,3.79,4.39-.07,8.78-.02,13.17-.02Zm.36-85.37c-4.39,0-8.78.09-13.17-.03-2.94-.08-4.3.92-4.25,4.07.13,8.03.11,16.06,0,24.1-.03,2.73,1.06,3.98,3.75,3.98,8.99-.01,17.99-.03,26.98.01,2.87.01,4.03-1.36,4.01-4.15-.05-7.92-.06-15.85,0-23.78.02-2.92-1.05-4.35-4.16-4.24-4.39.15-8.78.04-13.17.04Zm59.17,0c-4.5,0-9,.06-13.49-.02-2.68-.05-3.9,1.02-3.87,3.8.09,8.14.09,16.28,0,24.42-.03,2.77,1.19,3.92,3.83,3.91,9-.01,17.99-.02,26.99,0,2.65,0,3.95-1.19,3.94-3.88-.03-8.14-.02-16.28,0-24.42,0-2.65-1.15-3.91-3.9-3.85-4.5.1-9,.03-13.49.03Zm-.07,85.37c4.5,0,9-.07,13.49.03,2.7.06,3.97-1.1,3.97-3.79-.02-8.14-.02-16.28,0-24.42,0-2.65-1.17-3.95-3.88-3.94-9,.03-17.99.02-26.99,0-2.61,0-3.92,1.02-3.89,3.84.09,8.14.09,16.28,0,24.42-.03,2.73,1.07,3.92,3.8,3.88,4.5-.07,9-.02,13.49-.02Zm-158.1-22.18c-17.89,0-35.78,0-53.66-.01-2.5,0-4.3.87-4.27,3.6.03,2.52,1.79,3.45,4.1,3.55.64.03,1.29,0,1.93,0,34.38,0,68.77,0,103.15,0,1.07,0,2.18.09,3.2-.14,2.63-.61,3.94-3.62,2.16-5.42-.96-.97-2.79-1.51-4.22-1.52-17.46-.1-34.92-.06-52.38-.06Z"/>
  <g>
    <path class="cls-1" d="m70.03,52.6v72h-22.58V52.6h22.58Z"/>
    <path class="cls-1" d="m152.09,124.6l-4.98-4.68c-6.37,3.8-13.87,5.69-22.47,5.69-5.83,0-10.9-.92-15.2-2.75-4.31-1.83-7.61-4.42-9.92-7.78-2.31-3.36-3.46-7.2-3.46-11.54s1.07-7.92,3.2-11.34c2.14-3.42,5.34-6.32,9.61-8.69-3.12-3.86-4.68-7.93-4.68-12.2,0-3.66.97-7.02,2.9-10.07,1.93-3.05,4.76-5.47,8.49-7.27,3.73-1.8,8.17-2.7,13.32-2.7s9.66.93,13.32,2.8c3.66,1.87,6.41,4.32,8.24,7.37,1.83,3.05,2.75,6.34,2.75,9.86h-20.54c0-1.29-.37-2.25-1.12-2.9-.75-.64-1.63-.97-2.64-.97-1.08,0-2.02.32-2.8.97-.78.65-1.17,1.54-1.17,2.7,0,2.17,1.49,4.68,4.47,7.53l16.37,15.86c.95-1.83,1.79-3.9,2.54-6.2l.31-.92h21.86l-1.02,2.64c-2.58,6.78-5.76,12.81-9.56,18.1l16.98,16.47h-24.81Zm-19.02-17.9l-12-11.19c-1.15.81-2.02,1.75-2.59,2.8-.58,1.05-.86,2.12-.86,3.2,0,1.76.76,3.25,2.29,4.47,1.52,1.22,3.64,1.83,6.36,1.83,2.44,0,4.71-.37,6.81-1.12Z"/>
    <path class="cls-1" d="m255,89.67c-2.1,3.7-5.2,6.63-9.3,8.8-4.1,2.17-9.07,3.25-14.9,3.25h-8.95v22.88h-22.58V52.6h31.52c8.81,0,15.58,2.24,20.29,6.71s7.07,10.47,7.07,18c0,4.54-1.05,8.66-3.15,12.36Zm-19.73-12.36c0-4.41-2.34-6.61-7.02-6.61h-6.41v13.22h6.41c4.68,0,7.02-2.2,7.02-6.61Z"/>
  </g>
</svg>